<svg xmlns="http://www.w3.org/2000/svg" xmlns:xlink="http://www.w3.org/1999/xlink" version="1.1" viewBox="0 0 140 140" enable-background="new 0 0 140 140" xml:space="preserve"><path style="fill:white" d="M46.4257813,89.0292969c-10.4931641,0-19.0292969-8.5366211-19.0292969-19.0292969  s8.5361328-19.0292969,19.0292969-19.0292969S65.4550781,59.5073242,65.4550781,70S56.9189453,89.0292969,46.4257813,89.0292969z   M46.4257813,52.9707031c-9.3896484,0-17.0292969,7.6391602-17.0292969,17.0292969s7.6396484,17.0292969,17.0292969,17.0292969  S63.4550781,79.3901367,63.4550781,70S55.8154297,52.9707031,46.4257813,52.9707031z"/><path style="fill:white" d="M44.4414063,66.2114258c-0.3916016,0-0.7646484-0.2324219-0.9238281-0.6176758l-4.9121094-11.8540039  c-0.2109375-0.5102539,0.03125-1.0952148,0.5410156-1.3066406c0.5078125-0.2104492,1.0957031,0.0302734,1.3066406,0.5410156  l4.9121094,11.8540039c0.2109375,0.5102539-0.03125,1.0952148-0.5410156,1.3066406  C44.6992188,66.1865234,44.5693359,66.2114258,44.4414063,66.2114258z"/><path style="fill:white" d="M41.6357422,69.0170898c-0.1279297,0-0.2578125-0.0249023-0.3828125-0.0766602l-11.8544922-4.9116211  c-0.5097656-0.2114258-0.7519531-0.7963867-0.5410156-1.3066406s0.7998047-0.7519531,1.3066406-0.5410156l11.8544922,4.9116211  c0.5097656,0.2114258,0.7519531,0.7963867,0.5410156,1.3066406C42.4003906,68.7841797,42.0273438,69.0170898,41.6357422,69.0170898z  "/><path style="fill:white" d="M29.78125,77.8974609c-0.3916016,0-0.7646484-0.2324219-0.9238281-0.6176758  c-0.2109375-0.5102539,0.03125-1.0952148,0.5410156-1.3066406l11.8544922-4.9121094  c0.5087891-0.2109375,1.0957031,0.0302734,1.3066406,0.5410156c0.2109375,0.5102539-0.03125,1.0952148-0.5410156,1.3066406  l-11.8544922,4.9121094C30.0390625,77.8725586,29.9091797,77.8974609,29.78125,77.8974609z"/><path style="fill:white" d="M46.4296875,76.1865234c-0.8115234,0-1.6083984-0.1586914-2.3681641-0.4711914  c-1.5078125-0.6230469-2.7275391-1.8432617-3.3496094-3.3486328c-0.3134766-0.762207-0.4726563-1.559082-0.4726563-2.3701172  c0-0.8051758,0.1582031-1.5991211,0.4716797-2.3603516c0.625-1.512207,1.8457031-2.7324219,3.3505859-3.3505859  c1.5078125-0.6181641,3.1669922-0.6269531,4.7167969-0.0126953c1.5400391,0.6425781,2.7314453,1.8330078,3.3681641,3.3583984  c0.3105469,0.7827148,0.4648438,1.5727539,0.4648438,2.3652344c0,0.8110352-0.1591797,1.6079102-0.4716797,2.3686523  c-0.6240234,1.5097656-1.8408203,2.7299805-3.3398438,3.3496094C48.0380859,76.027832,47.2412109,76.1865234,46.4296875,76.1865234z   M46.4296875,65.8149414c-0.5478516,0-1.0888672,0.1079102-1.6083984,0.3212891  c-1.0146484,0.4165039-1.8388672,1.2412109-2.2617188,2.262207c-0.2119141,0.5170898-0.3203125,1.0551758-0.3203125,1.5981445  c0,0.5488281,0.1083984,1.0898438,0.3212891,1.6079102c0.4199219,1.0161133,1.2451172,1.8408203,2.2626953,2.2617188  c1.0332031,0.4248047,2.1777344,0.425293,3.2148438-0.0004883c1.0087891-0.4174805,1.8310547-1.2421875,2.2529297-2.2626953  c0.2119141-0.5166016,0.3203125-1.0576172,0.3203125-1.6064453c0-0.5385742-0.1064453-1.0805664-0.3173828-1.6113281  c-0.4257813-1.0195313-1.234375-1.8276367-2.2695313-2.2597656C47.5097656,65.921875,46.9677734,65.8149414,46.4296875,65.8149414z"/><path style="fill:white" d="M39.5292969,87.6455078c-0.1279297,0-0.2578125-0.0249023-0.3828125-0.0766602  c-0.5097656-0.2114258-0.7519531-0.7963867-0.5410156-1.3066406l4.9121094-11.8544922  c0.2109375-0.5107422,0.7998047-0.7519531,1.3066406-0.5410156c0.5097656,0.2114258,0.7519531,0.7963867,0.5410156,1.3066406  L40.453125,87.027832C40.2939453,87.4130859,39.9208984,87.6455078,39.5292969,87.6455078z"/><path style="fill:white" d="M53.3212891,87.6455078c-0.3925781,0-0.7646484-0.2329102-0.9238281-0.6181641l-4.9033203-11.8544922  c-0.2109375-0.5102539,0.03125-1.0952148,0.5419922-1.3066406c0.5087891-0.2075195,1.0947266,0.03125,1.3056641,0.5419922  l4.9033203,11.8544922c0.2109375,0.5102539-0.03125,1.0952148-0.5419922,1.3066406  C53.578125,87.6206055,53.4492188,87.6455078,53.3212891,87.6455078z"/><path style="fill:white" d="M63.0693359,77.8974609c-0.1279297,0-0.2578125-0.0249023-0.3828125-0.0766602l-11.8544922-4.9121094  c-0.5097656-0.2114258-0.7519531-0.7963867-0.5410156-1.3066406c0.2119141-0.5107422,0.7998047-0.7519531,1.3066406-0.5410156  l11.8544922,4.9121094c0.5097656,0.2114258,0.7519531,0.7963867,0.5410156,1.3066406  C63.8339844,77.6650391,63.4609375,77.8974609,63.0693359,77.8974609z"/><path style="fill:white" d="M51.2236328,69.0170898c-0.3916016,0-0.7636719-0.2324219-0.9238281-0.6176758  c-0.2119141-0.5097656,0.0302734-1.0952148,0.5410156-1.3066406l11.8457031-4.9116211  c0.5087891-0.2104492,1.0947266,0.0297852,1.3066406,0.5410156c0.2119141,0.5097656-0.0302734,1.0952148-0.5410156,1.3066406  l-11.8457031,4.9116211C51.4814453,68.9921875,51.3515625,69.0170898,51.2236328,69.0170898z"/><path style="fill:white" d="M48.4091797,66.203125c-0.1279297,0-0.2578125-0.0249023-0.3828125-0.0766602  c-0.5107422-0.2114258-0.7529297-0.796875-0.5410156-1.3066406l4.9121094-11.8457031  c0.2119141-0.5107422,0.7998047-0.7519531,1.3066406-0.5410156c0.5107422,0.2114258,0.7529297,0.796875,0.5410156,1.3066406  l-4.9121094,11.8457031C49.1728516,65.9707031,48.8007813,66.203125,48.4091797,66.203125z"/><path style="fill:white" d="M126.9755859,98.2207031H90.6425781c-0.265625,0-0.5195313-0.1054688-0.7070313-0.2929688l-6.7324219-6.7319336H68.03125  l-6.7314453,6.7319336c-0.1875,0.1875-0.4414063,0.2929688-0.7070313,0.2929688H24.2597656  c-0.265625,0-0.5195313-0.1054688-0.7070313-0.2929688l-7.0253906-7.0249023  c-0.1875-0.1875-0.2929688-0.4418945-0.2929688-0.7070313V49.8041992c0-0.2651367,0.1054688-0.5195313,0.2929688-0.7070313  l7.0253906-7.0249023c0.1875-0.1875,0.4414063-0.2929688,0.7070313-0.2929688h36.3330078  c0.265625,0,0.5195313,0.1054688,0.7070313,0.2929688l6.7314453,6.7319336h15.171875l6.7324219-6.7319336  c0.1875-0.1875,0.4414063-0.2929688,0.7070313-0.2929688h36.3330078c0.265625,0,0.5195313,0.1054688,0.7070313,0.2929688  l7.0244141,7.0249023C134.8945313,49.284668,135,49.5390625,135,49.8041992v40.3916016  c0,0.2651367-0.1054688,0.5195313-0.2929688,0.7070313l-7.0244141,7.0249023  C127.4951172,98.1152344,127.2412109,98.2207031,126.9755859,98.2207031z M91.0566406,96.2207031h35.5048828L133,89.7817383  V50.2182617l-6.4384766-6.4389648H91.0566406l-6.7324219,6.7319336c-0.1875,0.1875-0.4414063,0.2929688-0.7070313,0.2929688h-16  c-0.265625,0-0.5195313-0.1054688-0.7070313-0.2929688l-6.7314453-6.7319336H24.6738281l-6.4394531,6.4389648v39.5634766  l6.4394531,6.4389648h35.5048828l6.7314453-6.7319336c0.1875-0.1875,0.4414063-0.2929688,0.7070313-0.2929688h16  c0.265625,0,0.5195313,0.1054688,0.7070313,0.2929688L91.0566406,96.2207031z"/><path style="fill:white" d="M104.8085938,89.0292969c-10.4921875,0-19.0283203-8.5366211-19.0283203-19.0292969  s8.5361328-19.0292969,19.0283203-19.0292969c10.4931641,0,19.0292969,8.5366211,19.0292969,19.0292969  S115.3017578,89.0292969,104.8085938,89.0292969z M104.8085938,52.9707031c-9.3896484,0-17.0283203,7.6391602-17.0283203,17.0292969  s7.6386719,17.0292969,17.0283203,17.0292969S121.8378906,79.3901367,121.8378906,70S114.1982422,52.9707031,104.8085938,52.9707031  z"/><path style="fill:white" d="M106.7939453,66.2114258c-0.1279297,0-0.2578125-0.0249023-0.3828125-0.0766602  c-0.5097656-0.2114258-0.7519531-0.7963867-0.5410156-1.3066406l4.9111328-11.8540039  c0.2109375-0.5102539,0.7998047-0.7519531,1.3066406-0.5410156c0.5097656,0.2114258,0.7519531,0.7963867,0.5410156,1.3066406  L107.7177734,65.59375C107.5585938,65.9785156,107.1855469,66.2114258,106.7939453,66.2114258z"/><path style="fill:white" d="M109.5996094,69.0170898c-0.3916016,0-0.7646484-0.2324219-0.9238281-0.6176758  c-0.2109375-0.5102539,0.03125-1.0952148,0.5410156-1.3066406l11.8535156-4.9116211  c0.5087891-0.2104492,1.0947266,0.0297852,1.3066406,0.5410156c0.2109375,0.5102539-0.03125,1.0952148-0.5410156,1.3066406  l-11.8535156,4.9116211C109.8574219,68.9921875,109.7275391,69.0170898,109.5996094,69.0170898z"/><path style="fill:white" d="M121.453125,77.8974609c-0.1279297,0-0.2578125-0.0249023-0.3828125-0.0766602l-11.8535156-4.9121094  c-0.5097656-0.2114258-0.7519531-0.7963867-0.5410156-1.3066406c0.2109375-0.5107422,0.7988281-0.7519531,1.3066406-0.5410156  l11.8535156,4.9121094c0.5097656,0.2114258,0.7519531,0.7963867,0.5410156,1.3066406  C122.2177734,77.6650391,121.8447266,77.8974609,121.453125,77.8974609z"/><path style="fill:white" d="M104.8056641,76.1865234c-0.8125,0-1.609375-0.1586914-2.3691406-0.4711914  c-1.5-0.6201172-2.7177734-1.840332-3.3408203-3.3486328c-0.3134766-0.7607422-0.4716797-1.5576172-0.4716797-2.3701172  c0-0.7954102,0.1542969-1.5859375,0.4589844-2.3500977c0.6416016-1.5400391,1.8320313-2.7304688,3.3574219-3.3666992  c1.5810547-0.6274414,3.2255859-0.6123047,4.7333984,0.0058594c1.5048828,0.6186523,2.7255859,1.8388672,3.3496094,3.3491211  c0.3134766,0.7646484,0.4716797,1.5581055,0.4716797,2.3618164c0,0.8095703-0.1582031,1.6064453-0.4697266,2.3676758  c-0.6240234,1.5078125-1.84375,2.7280273-3.3496094,3.3505859C106.4140625,76.027832,105.6171875,76.1865234,104.8056641,76.1865234  z M104.8056641,65.8149414c-0.5390625,0-1.0810547,0.1069336-1.6113281,0.3173828  c-1.0195313,0.425293-1.828125,1.2333984-2.2597656,2.269043c-0.2041016,0.5126953-0.3105469,1.0541992-0.3105469,1.5952148  c0,0.550293,0.1074219,1.0913086,0.3203125,1.6079102c0.4208984,1.019043,1.2431641,1.84375,2.2548828,2.2617188  c1.0292969,0.4238281,2.1757813,0.425293,3.2148438-0.0004883c1.015625-0.4204102,1.8408203-1.2451172,2.2617188-2.2626953  c0.2109375-0.5166016,0.3193359-1.0581055,0.3193359-1.6064453c0-0.5424805-0.1083984-1.0810547-0.3212891-1.6010742  c-0.4208984-1.0175781-1.2451172-1.8422852-2.2597656-2.2597656  C105.8945313,65.9228516,105.3535156,65.8149414,104.8056641,65.8149414z"/><path style="fill:white" d="M111.7050781,87.6455078c-0.3916016,0-0.7646484-0.2324219-0.9238281-0.6176758l-4.9111328-11.8544922  c-0.2109375-0.5102539,0.03125-1.0952148,0.5410156-1.3066406c0.5078125-0.2104492,1.0957031,0.0302734,1.3066406,0.5410156  l4.9111328,11.8544922c0.2109375,0.5102539-0.03125,1.0952148-0.5410156,1.3066406  C111.9628906,87.6206055,111.8330078,87.6455078,111.7050781,87.6455078z"/><path style="fill:white" d="M97.9130859,87.6455078c-0.1279297,0-0.2568359-0.0249023-0.3818359-0.0761719  c-0.5107422-0.2114258-0.7529297-0.7963867-0.5419922-1.3066406l4.9033203-11.8544922  c0.2109375-0.5107422,0.796875-0.7495117,1.3056641-0.5419922c0.5107422,0.2114258,0.7529297,0.7963867,0.5419922,1.3066406  l-4.9033203,11.8544922C98.6777344,87.4125977,98.3056641,87.6455078,97.9130859,87.6455078z"/><path style="fill:white" d="M88.1650391,77.8974609c-0.3916016,0-0.7646484-0.2324219-0.9238281-0.6176758  c-0.2109375-0.5102539,0.03125-1.0952148,0.5410156-1.3066406l11.8544922-4.9121094  c0.5087891-0.2109375,1.0957031,0.0302734,1.3066406,0.5410156c0.2109375,0.5102539-0.03125,1.0952148-0.5410156,1.3066406  l-11.8544922,4.9121094C88.4228516,77.8725586,88.2929688,77.8974609,88.1650391,77.8974609z"/><path style="fill:white" d="M100.0117188,69.0170898c-0.1279297,0-0.2578125-0.0249023-0.3828125-0.0766602l-11.8466797-4.9116211  c-0.5107422-0.2114258-0.7529297-0.796875-0.5410156-1.3066406c0.2128906-0.5112305,0.7998047-0.7519531,1.3066406-0.5410156  l11.8466797,4.9116211c0.5107422,0.2114258,0.7529297,0.796875,0.5410156,1.3066406  C100.7763672,68.784668,100.4033203,69.0170898,100.0117188,69.0170898z"/><path style="fill:white" d="M102.8251953,66.203125c-0.3916016,0-0.7636719-0.2324219-0.9238281-0.6176758l-4.9121094-11.8457031  c-0.2119141-0.5097656,0.0302734-1.0952148,0.5410156-1.3066406c0.5078125-0.2104492,1.0947266,0.0302734,1.3066406,0.5410156  l4.9121094,11.8457031c0.2119141,0.5097656-0.0302734,1.0952148-0.5410156,1.3066406  C103.0830078,66.1782227,102.953125,66.203125,102.8251953,66.203125z"/><path style="fill:white" d="M17.234375,106.2104492H6c-0.5527344,0-1-0.4477539-1-1V34.7895508c0-0.5522461,0.4472656-1,1-1h11.234375  c0.5527344,0,1,0.4477539,1,1v70.4208984C18.234375,105.7626953,17.7871094,106.2104492,17.234375,106.2104492z M7,104.2104492  h9.234375V35.7895508H7V104.2104492z"/><path style="fill:white" d="M34.0888672,103.953125c-0.5527344,0-1-0.4477539-1-1v-5.7299805c0-0.5522461,0.4472656-1,1-1s1,0.4477539,1,1v5.7299805  C35.0888672,103.5053711,34.6416016,103.953125,34.0888672,103.953125z"/><path style="fill:white" d="M39.5283203,103.953125c-0.5527344,0-1-0.4477539-1-1v-5.7299805c0-0.5522461,0.4472656-1,1-1s1,0.4477539,1,1v5.7299805  C40.5283203,103.5053711,40.0810547,103.953125,39.5283203,103.953125z"/><path style="fill:white" d="M44.96875,103.953125c-0.5527344,0-1-0.4477539-1-1v-5.7299805c0-0.5522461,0.4472656-1,1-1s1,0.4477539,1,1v5.7299805  C45.96875,103.5053711,45.5214844,103.953125,44.96875,103.953125z"/><path style="fill:white" d="M50.4082031,103.953125c-0.5527344,0-1-0.4477539-1-1v-5.7299805c0-0.5522461,0.4472656-1,1-1s1,0.4477539,1,1v5.7299805  C51.4082031,103.5053711,50.9609375,103.953125,50.4082031,103.953125z"/><path style="fill:white" d="M93.7216797,103.953125c-0.5527344,0-1-0.4477539-1-1v-5.7299805c0-0.5522461,0.4472656-1,1-1s1,0.4477539,1,1v5.7299805  C94.7216797,103.5053711,94.2744141,103.953125,93.7216797,103.953125z"/><path style="fill:white" d="M99.671875,103.953125c-0.5527344,0-1-0.4477539-1-1v-5.7299805c0-0.5522461,0.4472656-1,1-1s1,0.4477539,1,1v5.7299805  C100.671875,103.5053711,100.2246094,103.953125,99.671875,103.953125z"/><path style="fill:white" d="M105.6318359,103.953125c-0.5527344,0-1-0.4477539-1-1v-5.7299805c0-0.5522461,0.4472656-1,1-1s1,0.4477539,1,1v5.7299805  C106.6318359,103.5053711,106.1845703,103.953125,105.6318359,103.953125z"/><path style="fill:white" d="M111.5820313,103.953125c-0.5527344,0-1-0.4477539-1-1v-5.7299805c0-0.5522461,0.4472656-1,1-1s1,0.4477539,1,1v5.7299805  C112.5820313,103.5053711,112.1347656,103.953125,111.5820313,103.953125z"/><path style="fill:white" d="M117.5322266,103.953125c-0.5527344,0-1-0.4477539-1-1v-5.7299805c0-0.5522461,0.4472656-1,1-1s1,0.4477539,1,1v5.7299805  C118.5322266,103.5053711,118.0849609,103.953125,117.5322266,103.953125z"/><path style="fill:white" d="M123.4824219,103.953125c-0.5527344,0-1-0.4477539-1-1v-5.7299805c0-0.5522461,0.4472656-1,1-1s1,0.4477539,1,1v5.7299805  C124.4824219,103.5053711,124.0351563,103.953125,123.4824219,103.953125z"/><path style="fill:white" d="M12.3964844,41.9204102h-1.5576172c-0.5527344,0-1-0.4477539-1-1s0.4472656-1,1-1h1.5576172c0.5527344,0,1,0.4477539,1,1  S12.9492188,41.9204102,12.3964844,41.9204102z"/><path style="fill:white" d="M12.3964844,49.1904297h-1.5576172c-0.5527344,0-1-0.4477539-1-1s0.4472656-1,1-1h1.5576172c0.5527344,0,1,0.4477539,1,1  S12.9492188,49.1904297,12.3964844,49.1904297z"/><path style="fill:white" d="M12.3964844,56.4604492h-1.5576172c-0.5527344,0-1-0.4477539-1-1s0.4472656-1,1-1h1.5576172c0.5527344,0,1,0.4477539,1,1  S12.9492188,56.4604492,12.3964844,56.4604492z"/><path style="fill:white" d="M12.3964844,63.7299805h-1.5576172c-0.5527344,0-1-0.4477539-1-1s0.4472656-1,1-1h1.5576172c0.5527344,0,1,0.4477539,1,1  S12.9492188,63.7299805,12.3964844,63.7299805z"/><path style="fill:white" d="M12.3964844,71h-1.5576172c-0.5527344,0-1-0.4477539-1-1s0.4472656-1,1-1h1.5576172c0.5527344,0,1,0.4477539,1,1  S12.9492188,71,12.3964844,71z"/><path style="fill:white" d="M12.3964844,78.2700195h-1.5576172c-0.5527344,0-1-0.4477539-1-1s0.4472656-1,1-1h1.5576172c0.5527344,0,1,0.4477539,1,1  S12.9492188,78.2700195,12.3964844,78.2700195z"/><path style="fill:white" d="M12.3964844,85.5395508h-1.5576172c-0.5527344,0-1-0.4477539-1-1s0.4472656-1,1-1h1.5576172c0.5527344,0,1,0.4477539,1,1  S12.9492188,85.5395508,12.3964844,85.5395508z"/><path style="fill:white" d="M12.3964844,92.8095703h-1.5576172c-0.5527344,0-1-0.4477539-1-1s0.4472656-1,1-1h1.5576172c0.5527344,0,1,0.4477539,1,1  S12.9492188,92.8095703,12.3964844,92.8095703z"/><path style="fill:white" d="M12.3964844,100.0795898h-1.5576172c-0.5527344,0-1-0.4477539-1-1s0.4472656-1,1-1h1.5576172c0.5527344,0,1,0.4477539,1,1  S12.9492188,100.0795898,12.3964844,100.0795898z"/></svg>